<?xml version="1.0" encoding="UTF-8"?>
<svg id="a" xmlns="http://www.w3.org/2000/svg" version="1.1" viewBox="0 0 321.1 321.1">
  <!-- Generator: Adobe Illustrator 30.1.0, SVG Export Plug-In . SVG Version: 2.1.1 Build 136)  -->
  <defs>
    <style>
      .st0 {
        fill: #fff;
      }
    </style>
  </defs>
  <rect width="321.1" height="321.1"/>
  <rect class="st0" x="23.1" y="145.5" width="6.9" height="37.9"/>
  <path class="st0" d="M63.3,145.2c-6,0-10.9,2.2-13.7,6.1v-5.7h-6.6v37.9h6.9v-19.5c0-8.2,4.7-12.6,12-12.6s10.2,3.6,10.2,11.1v21h6.9v-21.8c0-11.2-6.5-16.5-15.7-16.5h0Z"/>
  <polygon class="st0" points="104.6 175.9 91.6 145.5 84.4 145.5 101 183.5 108 183.5 124.6 145.5 117.9 145.5 104.6 175.9"/>
  <path class="st0" d="M146.2,145.2c-11.4,0-19.7,8-19.7,19.3s8.4,19.4,19.7,19.4,19.7-8.1,19.7-19.4-8.3-19.3-19.7-19.3h0ZM146.2,177.9c-7.3,0-12.8-5.3-12.8-13.4s5.5-13.3,12.8-13.3,12.7,5.2,12.7,13.3-5.4,13.4-12.7,13.4h0Z"/>
  <polygon class="st0" points="211.3 145.5 203 145.5 182.3 164.4 182.3 144.2 175.4 144.2 175.4 183.5 182.3 183.5 182.3 173.1 190.2 165.8 204.4 183.5 212.8 183.5 195.3 161.2 211.3 145.5"/>
  <path class="st0" d="M232.6,145.2c-6.1,0-11.7,1.7-15.7,4.9l2.9,5.2c2.9-2.5,7.5-4.1,12-4.1,6.8,0,10.2,3.4,10.2,9.2v1.4h-10.9c-11.3,0-15.2,5-15.2,11.1s5.4,11.2,14,11.2,10.2-2,12.4-5.4v5h6.5v-22.9c0-10.4-5.9-15.4-16.2-15.4h0ZM241.9,171.9c-1.7,4.4-5.8,6.7-10.9,6.7s-8.4-2.4-8.4-6.2,1.9-5.9,8.7-5.9h10.6v5.3Z"/>
  <path class="st0" d="M275.4,178.1c-3.8,0-5.9-2.3-5.9-6.4v-20.5h10.9v-5.7h-10.9v-8.3h-6.9v8.3h-6.4v5.7h6.4v20.8c0,7.7,4.4,11.9,12,11.9s6.2-.9,8.3-2.6l-2.1-4.9c-1.4,1.1-3.4,1.8-5.4,1.8Z"/>
  <rect class="st0" x="291.2" y="145.5" width="6.9" height="37.9"/>
</svg>